<svg width="24" height="24" viewBox="0 0 24 24" fill="none" xmlns="http://www.w3.org/2000/svg">
<path d="M5.80366 19.6555L5.79446 19.6541L5.78522 19.6531C4.2209 19.4792 3.39262 18.9454 2.91871 18.1644C2.41731 17.3381 2.25 16.1419 2.25 14.5V9.5C2.25 7.85883 2.41967 6.6604 2.92552 5.83177C3.40419 5.04765 4.24029 4.51089 5.81489 4.33698L5.81491 4.33714L5.82756 4.33542C6.23612 4.2797 6.76113 4.25 7.5 4.25H10.96C11.0939 4.25 11.21 4.36614 11.21 4.5C11.21 4.63386 11.0939 4.75 10.96 4.75H7.5C6.80836 4.75 6.30732 4.78036 5.8913 4.83343C4.85715 4.94594 3.98334 5.17851 3.42925 5.96935C2.90813 6.71315 2.75 7.8504 2.75 9.5V14.5C2.75 16.15 2.9083 17.2836 3.42458 18.0256C3.97338 18.8143 4.83783 19.0483 5.85612 19.1659C6.3103 19.2303 6.81713 19.25 7.5 19.25H11.02C11.1539 19.25 11.27 19.3661 11.27 19.5C11.27 19.6339 11.1539 19.75 11.02 19.75H7.5C6.7612 19.75 6.23884 19.7203 5.80366 19.6555Z" fill="#1A1A2A" stroke="#1A1A2A"/>
<path d="M18.1959 4.34455L18.2051 4.34591L18.2143 4.34694C19.7786 4.52075 20.6069 5.05465 21.0808 5.83564C21.5822 6.66191 21.7495 7.85808 21.7495 9.5V14.5C21.7495 16.1412 21.5799 17.3396 21.074 18.1682C20.5953 18.9523 19.7592 19.4891 18.1846 19.663L18.1846 19.6629L18.172 19.6646C17.7634 19.7203 17.2384 19.75 16.4995 19.75H15.0195C14.8857 19.75 14.7695 19.6339 14.7695 19.5C14.7695 19.3661 14.8857 19.25 15.0195 19.25H16.4995C17.1912 19.25 17.6922 19.2196 18.1083 19.1666C19.1424 19.0541 20.0162 18.8215 20.5703 18.0307C21.0914 17.2869 21.2495 16.1496 21.2495 14.5V9.5C21.2495 7.85001 21.0912 6.71638 20.5749 5.97442C20.0262 5.18573 19.1617 4.95174 18.1434 4.83405C17.6892 4.76969 17.1824 4.75 16.4995 4.75H15.0195C14.8857 4.75 14.7695 4.63386 14.7695 4.5C14.7695 4.36614 14.8857 4.25 15.0195 4.25H16.4995C17.2383 4.25 17.7607 4.27973 18.1959 4.34455Z" fill="#1A1A2A" stroke="#1A1A2A"/>
<path d="M15 22.25C14.8661 22.25 14.75 22.1339 14.75 22V2C14.75 1.86614 14.8661 1.75 15 1.75C15.1339 1.75 15.25 1.86614 15.25 2V22C15.25 22.1339 15.1339 22.25 15 22.25Z" fill="#1A1A2A" stroke="#1A1A2A"/>
<path d="M8 15.75C7.86614 15.75 7.75 15.6339 7.75 15.5V8.5C7.75 8.36614 7.86614 8.25 8 8.25C8.13386 8.25 8.25 8.36614 8.25 8.5V15.5C8.25 15.6339 8.13386 15.75 8 15.75Z" fill="#1A1A2A" stroke="#1A1A2A"/>
</svg>
