<svg width="24" height="24" viewBox="0 0 24 24" fill="none" xmlns="http://www.w3.org/2000/svg">
<g id="vuesax/bold/check">
<path id="Vector" d="M15 21.5C14.8661 21.5 14.75 21.3839 14.75 21.25V2.75C14.75 2.61614 14.8661 2.5 15 2.5C15.1339 2.5 15.25 2.61614 15.25 2.75V21.25C15.25 21.3839 15.1339 21.5 15 21.5Z" fill="white" stroke="white"/>
<path id="Vector_2" d="M18 19.5H15.5V4.5H18C19.9339 4.5 21.5 6.06614 21.5 8V16C21.5 17.9339 19.9339 19.5 18 19.5Z" fill="white" stroke="white"/>
<path id="Vector_3" d="M2.5 8C2.5 6.06614 4.06614 4.5 6 4.5H11C11.2739 4.5 11.5 4.72614 11.5 5V19C11.5 19.2739 11.2739 19.5 11 19.5H6C4.06614 19.5 2.5 17.9339 2.5 16V8ZM7 16.75C7.68614 16.75 8.25 16.1861 8.25 15.5V8.5C8.25 7.81386 7.68614 7.25 7 7.25C6.31386 7.25 5.75 7.81386 5.75 8.5V15.5C5.75 16.1861 6.31386 16.75 7 16.75Z" fill="white" stroke="white"/>
</g>
</svg>
