<svg width="50" height="50" viewBox="0 0 50 50" fill="none" xmlns="http://www.w3.org/2000/svg">
<path d="M22.6853 40.146H15.4384C14.162 40.146 13.0296 40.1048 12.0208 39.9607C6.60626 39.3637 5.14453 36.8108 5.14453 29.8521V19.5583C5.14453 12.5996 6.60626 10.0467 12.0208 9.44969C13.0296 9.30558 14.162 9.2644 15.4384 9.2644H22.5618" stroke="#0267FF" stroke-width="2.9065" stroke-linecap="round" stroke-linejoin="round"/>
<path d="M30.9219 9.2644H33.9689C35.2453 9.2644 36.3776 9.30558 37.3864 9.44969C42.801 10.0467 44.2627 12.5996 44.2627 19.5583V29.8521C44.2627 36.8108 42.801 39.3637 37.3864 39.9607C36.3776 40.1048 35.2453 40.146 33.9689 40.146H30.9219" stroke="#0267FF" stroke-width="2.9065" stroke-linecap="round" stroke-linejoin="round"/>
<path d="M30.8828 4.11743V45.2929" stroke="#0267FF" stroke-width="2.9065" stroke-linecap="round" stroke-linejoin="round"/>
<path d="M16.4727 17.4995V31.9109" stroke="#0267FF" stroke-width="2.9065" stroke-linecap="round" stroke-linejoin="round"/>
</svg>
