<svg width="24" height="24" viewBox="0 0 24 24" fill="none" xmlns="http://www.w3.org/2000/svg">
<g id="vuesax/bold/category">
<g id="category">
<path id="Vector" d="M10.06 5.32771V5.33V7.23C10.06 8.23613 9.79557 8.92232 9.35895 9.35895C8.92232 9.79557 8.23613 10.06 7.23 10.06H5.33C4.32387 10.06 3.63768 9.79557 3.20105 9.35895C2.76443 8.92232 2.5 8.23613 2.5 7.23V5.33C2.5 4.32387 2.76441 3.63797 3.20191 3.20145C3.63959 2.76474 4.32828 2.5 5.34 2.5H7.24C8.24631 2.5 8.93213 2.76451 9.3673 3.20066C9.80228 3.63661 10.0646 4.322 10.06 5.32771Z" fill="white" stroke="white"/>
<path id="Vector_2" d="M16.7714 2.5H18.6714C19.6775 2.5 20.3637 2.76443 20.8004 3.20105C21.237 3.63768 21.5014 4.32387 21.5014 5.33V7.23C21.5014 8.23613 21.237 8.92232 20.8004 9.35895C20.3637 9.79557 19.6775 10.06 18.6714 10.06H16.7714C15.7653 10.06 15.0791 9.79557 14.6425 9.35895C14.2058 8.92232 13.9414 8.23613 13.9414 7.23V5.33C13.9414 4.32387 14.2058 3.63768 14.6425 3.20105C15.0791 2.76443 15.7653 2.5 16.7714 2.5Z" fill="white" stroke="white"/>
<path id="Vector_3" d="M16.7714 13.9299H18.6714C19.6775 13.9299 20.3637 14.1944 20.8004 14.631C21.237 15.0676 21.5014 15.7538 21.5014 16.7599V18.6599C21.5014 19.6661 21.237 20.3523 20.8004 20.7889C20.3637 21.2255 19.6775 21.4899 18.6714 21.4899H16.7714C15.7653 21.4899 15.0791 21.2255 14.6425 20.7889C14.2058 20.3523 13.9414 19.6661 13.9414 18.6599V16.7599C13.9414 15.7538 14.2058 15.0676 14.6425 14.631C15.0791 14.1944 15.7653 13.9299 16.7714 13.9299Z" fill="white" stroke="white"/>
<path id="Vector_4" d="M10.06 16.7676V16.7699V18.6699C10.06 19.6761 9.79557 20.3623 9.35895 20.7989C8.92232 21.2355 8.23613 21.4999 7.23 21.4999H5.33C4.32387 21.4999 3.63797 21.2355 3.20145 20.798C2.76474 20.3603 2.5 19.6717 2.5 18.6599V16.7599C2.5 15.7538 2.76441 15.0679 3.20191 14.6314C3.63959 14.1947 4.32828 13.9299 5.34 13.9299H7.24C8.24631 13.9299 8.93184 14.1944 9.36691 14.6314C9.80196 15.0684 10.0646 15.7563 10.06 16.7676Z" fill="white" stroke="white"/>
</g>
</g>
</svg>
