<svg width="24" height="24" viewBox="0 0 24 24" fill="none" xmlns="http://www.w3.org/2000/svg">
<g id="vuesax/bold/edit-2">
<g id="edit-2">
<path id="Vector" d="M21 21.5H3C2.86614 21.5 2.75 21.3839 2.75 21.25C2.75 21.1161 2.86614 21 3 21H21C21.1339 21 21.25 21.1161 21.25 21.25C21.25 21.3839 21.1339 21.5 21 21.5Z" fill="#0267FF" stroke="#0267FF"/>
<path id="Vector_2" d="M18.667 3.83371L18.667 3.83372L18.6688 3.83548C19.6137 4.77098 19.9987 5.60886 19.9906 6.41511L19.9906 6.41511V6.42016C19.9906 7.19762 19.6056 8.02744 18.6688 8.95481L18.6688 8.9548L18.6655 8.95807L17.506 10.1272C15.0581 9.40926 13.0962 7.4491 12.3757 5.00216L13.5441 3.83371C14.4865 2.89135 15.338 2.50133 16.1211 2.5064C16.9058 2.51147 17.7473 2.91404 18.667 3.83371Z" fill="#0267FF" stroke="#0267FF"/>
<path id="Vector_3" d="M14.5156 11.5201C14.8047 11.6914 15.1004 11.8389 15.3929 11.9801L15.4021 11.9845L15.4115 11.9886C15.4512 12.0058 15.4905 12.0227 15.5294 12.0393L15.7257 11.5794L15.5294 12.0393C15.5351 12.0417 15.5383 12.0445 15.5409 12.0478C15.5441 12.0518 15.547 12.0576 15.5484 12.0641C15.5495 12.0693 15.5492 12.0727 15.549 12.074C15.5488 12.0742 15.5485 12.0745 15.5481 12.0749L9.82677 17.7963L9.8197 17.8033L9.81292 17.8107C9.81381 17.8097 9.80556 17.8184 9.78354 17.8337C9.76257 17.8483 9.73554 17.8644 9.70421 17.8801C9.64011 17.9121 9.58298 17.93 9.55238 17.9358L5.72069 18.4747L5.72067 18.4745L5.70812 18.4766C5.61491 18.4921 5.5224 18.4998 5.43032 18.4998C5.00917 18.4998 4.6405 18.3531 4.38352 18.1058C4.09003 17.8022 3.93489 17.3273 4.01501 16.7826L4.01542 16.7796L4.55379 12.9612C4.55951 12.9343 4.5771 12.8793 4.61003 12.8134C4.64591 12.7416 4.67989 12.6973 4.69387 12.6834L10.4223 6.95489C10.4224 6.95485 10.4224 6.95481 10.4225 6.95477C10.4234 6.95481 10.4247 6.95495 10.4263 6.9553C10.4312 6.95633 10.4364 6.9587 10.4408 6.96216C10.4444 6.96508 10.4482 6.96927 10.4516 6.97676C10.4727 7.0245 10.4946 7.07268 10.5172 7.12125L10.5171 7.12132L10.5231 7.13341C10.6649 7.41692 10.811 7.69925 10.98 7.98444M14.5156 11.5201C14.2836 11.3829 14.0642 11.2368 13.8487 11.0831C13.6611 10.9606 13.4546 10.7954 13.2714 10.6417C13.2564 10.6312 13.2455 10.6227 13.2404 10.6187L13.2392 10.6178C13.2188 10.6018 13.198 10.5844 13.1786 10.5673C13.1434 10.5365 13.1032 10.4992 13.0617 10.4582C12.7256 10.1716 12.3512 9.80755 12.0117 9.40063C11.9966 9.38632 11.985 9.37406 11.9775 9.36592C11.9553 9.342 11.9353 9.31765 11.9199 9.2984C11.9026 9.27682 11.8792 9.24634 11.8578 9.21843C11.8481 9.20584 11.8388 9.19377 11.8307 9.18328C11.8255 9.17711 11.8202 9.17067 11.8146 9.16396C11.7162 9.04627 11.548 8.84505 11.3945 8.61275C11.2557 8.43571 11.1073 8.19986 10.98 7.98444M14.5156 11.5201C14.5157 11.5201 14.5159 11.5202 14.516 11.5203L14.7703 11.0898L14.5154 11.52C14.5155 11.52 14.5156 11.52 14.5156 11.5201ZM10.98 7.98444C10.9801 7.98453 10.9801 7.98462 10.9802 7.98471L11.4103 7.7298L10.9799 7.98417C10.9799 7.98426 10.98 7.98435 10.98 7.98444Z" fill="#0267FF" stroke="#0267FF"/>
</g>
</g>
</svg>
