<svg width="221" height="50" viewBox="0 0 221 50" fill="none" xmlns="http://www.w3.org/2000/svg">
<path d="M22.6877 40.1461H15.4408C14.1644 40.1461 13.0321 40.1049 12.0233 39.9608C6.6087 39.3637 5.14697 36.8109 5.14697 29.8522V19.5583C5.14697 12.5997 6.6087 10.0468 12.0233 9.44977C13.0321 9.30566 14.1644 9.26448 15.4408 9.26448H22.5642" stroke="#0267FF" stroke-width="2.9065" stroke-linecap="round" stroke-linejoin="round"/>
<path d="M30.9229 9.26448H33.9698C35.2463 9.26448 36.3786 9.30566 37.3874 9.44977C42.802 10.0468 44.2637 12.5997 44.2637 19.5583V29.8522C44.2637 36.8109 42.802 39.3637 37.3874 39.9608C36.3786 40.1049 35.2463 40.1461 33.9698 40.1461H30.9229" stroke="#0267FF" stroke-width="2.9065" stroke-linecap="round" stroke-linejoin="round"/>
<path d="M30.8816 4.11754V45.293" stroke="#0267FF" stroke-width="2.9065" stroke-linecap="round" stroke-linejoin="round"/>
<path d="M16.4702 17.4996V31.911" stroke="#0267FF" stroke-width="2.9065" stroke-linecap="round" stroke-linejoin="round"/>
<path d="M57.6663 17.1129H66.7916C67.979 17.1129 69.0092 17.1688 69.8823 17.2805C70.7553 17.3853 71.4992 17.5389 72.1138 17.7415C72.7285 17.9441 73.2279 18.192 73.612 18.4854C74.0031 18.7787 74.307 19.107 74.5235 19.4702C74.747 19.8334 74.8972 20.2315 74.974 20.6645C75.0578 21.0976 75.0997 21.5586 75.0997 22.0475C75.0997 22.5504 75.0508 23.0218 74.953 23.4618C74.8622 23.9019 74.6911 24.307 74.4397 24.6772C74.1882 25.0403 73.839 25.3686 73.392 25.662C72.952 25.9553 72.3827 26.2033 71.6843 26.4058C70.9928 26.6014 70.1547 26.7551 69.1698 26.8668C68.192 26.9716 67.0395 27.024 65.7125 27.024V28.3964L67.0535 28.6583V33.2053H57.6663V28.6583L59.0073 28.3964V21.9217L57.6663 21.6598V17.1129ZM65.7125 24.1428C66.1176 24.1428 66.4843 24.1219 66.8125 24.08C67.1478 24.0381 67.4307 23.9508 67.6612 23.8181C67.8986 23.6784 68.0802 23.4793 68.206 23.2209C68.3317 22.9624 68.3945 22.6132 68.3945 22.1732C68.3945 21.7471 68.3317 21.4084 68.206 21.1569C68.0802 20.8985 67.8986 20.7029 67.6612 20.5702C67.4307 20.4375 67.1478 20.3502 66.8125 20.3083C66.4843 20.2664 66.1176 20.2455 65.7125 20.2455V24.1428ZM83.9631 29.1822C84.2564 29.1822 84.5358 29.1438 84.8012 29.0669C85.0666 28.9831 85.3111 28.8784 85.5346 28.7526C85.7651 28.6199 85.9711 28.4767 86.1527 28.3231C86.3413 28.1624 86.5055 28.0018 86.6452 27.8411H88.3948V33.2053H76.4093V29.025L77.6665 28.7841V22.8228L76.4093 22.5818V18.4539H85.2308V22.5818L83.9631 22.8228V29.1822ZM100.118 33.2053L99.5945 30.7223H95.4771L94.9533 33.2053H89.3482V28.344L90.5635 28.1031L93.4656 18.4539H101.596L104.519 28.1031L105.723 28.344V33.2053H100.118ZM96.1162 27.4116H98.9554L97.5306 21.6179L96.1162 27.4116ZM106.729 25.6305C106.729 24.3174 106.928 23.186 107.326 22.2361C107.725 21.2792 108.29 20.4934 109.024 19.8788C109.757 19.2571 110.641 18.7997 111.674 18.5063C112.715 18.206 113.874 18.0558 115.153 18.0558C115.928 18.0558 116.626 18.0942 117.248 18.1711C117.877 18.2479 118.439 18.3457 118.935 18.4644C119.438 18.5831 119.878 18.7158 120.255 18.8625C120.639 19.0022 120.978 19.1384 121.271 19.2711V23.8285H118.306C118.145 23.598 117.985 23.399 117.824 23.2314C117.67 23.0567 117.503 22.917 117.321 22.8123C117.14 22.7005 116.937 22.6167 116.714 22.5608C116.49 22.505 116.228 22.477 115.928 22.477C115.565 22.477 115.208 22.5329 114.859 22.6446C114.517 22.7494 114.21 22.9275 113.937 23.179C113.672 23.4234 113.455 23.7482 113.288 24.1533C113.127 24.5514 113.047 25.0438 113.047 25.6305C113.047 26.315 113.113 26.8773 113.246 27.3173C113.378 27.7503 113.571 28.0961 113.822 28.3545C114.073 28.606 114.381 28.7806 114.744 28.8784C115.114 28.9761 115.537 29.025 116.012 29.025C116.263 29.025 116.522 29.0076 116.787 28.9726C117.059 28.9377 117.353 28.8714 117.667 28.7736V27.5792H115.561V25.0019H121.69V31.9585C121.173 32.1751 120.625 32.3776 120.045 32.5662C119.466 32.7548 118.882 32.9189 118.296 33.0586C117.716 33.1983 117.147 33.2891 116.588 33.331C116.029 33.3729 115.512 33.3939 115.037 33.3939C113.871 33.3939 112.781 33.2542 111.769 32.9748C110.756 32.6954 109.876 32.2309 109.128 31.5814C108.381 30.9318 107.794 30.1146 107.368 29.1298C106.942 28.138 106.729 26.9716 106.729 25.6305ZM123.241 18.4539H132.062V22.5818L130.805 22.8228V28.7841L132.062 29.025V33.2053H123.241V29.025L124.498 28.7841V22.8228L123.241 22.5818V18.4539ZM139.888 25.6305C139.888 26.7411 140.171 27.5513 140.737 28.0612C141.303 28.564 142.106 28.8155 143.147 28.8155C143.761 28.8155 144.481 28.7387 145.305 28.585C146.136 28.4313 147.072 28.1974 148.113 27.8831V32.4405C146.017 33.0761 144.002 33.3939 142.067 33.3939C140.866 33.3939 139.749 33.2542 138.715 32.9748C137.681 32.6884 136.784 32.2205 136.022 31.5709C135.261 30.9213 134.66 30.1041 134.22 29.1193C133.787 28.1275 133.571 26.9646 133.571 25.6305C133.571 24.3105 133.77 23.1755 134.168 22.2256C134.573 21.2687 135.142 20.4829 135.876 19.8683C136.616 19.2467 137.503 18.7892 138.537 18.4958C139.571 18.2025 140.723 18.0558 141.994 18.0558C142.769 18.0558 143.468 18.0942 144.09 18.1711C144.718 18.2479 145.28 18.3457 145.776 18.4644C146.279 18.5831 146.719 18.7158 147.096 18.8625C147.481 19.0022 147.819 19.1384 148.113 19.2711V23.8285H145.148C144.812 23.3675 144.442 23.0288 144.037 22.8123C143.632 22.5888 143.209 22.477 142.769 22.477C142.406 22.477 142.05 22.5469 141.701 22.6866C141.359 22.8262 141.051 23.0323 140.779 23.3047C140.513 23.5701 140.297 23.8984 140.129 24.2895C139.969 24.6806 139.888 25.1277 139.888 25.6305ZM150.051 18.4539H158.872V22.6027L157.615 22.8437V24.5724H162.654V22.8437L161.397 22.6027V18.4015H170.219V22.6027L168.961 22.8437V28.7841L170.219 29.025V33.2053H161.397V29.025L162.654 28.7841V27.0344H157.615V28.7841L158.872 29.025V33.2053H150.051V29.025L151.308 28.7841V22.8437L150.051 22.6027V18.4539ZM179.805 24.9391L182.707 24.3209V27.3068L179.805 26.6782V28.9936C180.224 28.9936 180.629 28.9657 181.02 28.9098C181.411 28.8469 181.775 28.7631 182.11 28.6583C182.445 28.5536 182.752 28.4313 183.032 28.2917C183.311 28.152 183.552 28.0018 183.755 27.8411H185.19V33.2053H172.241V29.025L173.498 28.7841V22.8437L172.241 22.6027V18.4539H185.19V23.8181H183.755C183.552 23.6644 183.311 23.5177 183.032 23.378C182.752 23.2383 182.445 23.1161 182.11 23.0113C181.775 22.9066 181.411 22.8228 181.02 22.7599C180.629 22.697 180.224 22.6656 179.805 22.6656V24.9391ZM192.817 25.6305C192.817 26.7411 193.1 27.5513 193.666 28.0612C194.232 28.564 195.035 28.8155 196.075 28.8155C196.69 28.8155 197.41 28.7387 198.234 28.585C199.065 28.4313 200.001 28.1974 201.041 27.8831V32.4405C198.946 33.0761 196.931 33.3939 194.996 33.3939C193.795 33.3939 192.677 33.2542 191.644 32.9748C190.61 32.6884 189.713 32.2205 188.951 31.5709C188.19 30.9213 187.589 30.1041 187.149 29.1193C186.716 28.1275 186.5 26.9646 186.5 25.6305C186.5 24.3105 186.699 23.1755 187.097 22.2256C187.502 21.2687 188.071 20.4829 188.805 19.8683C189.545 19.2467 190.432 18.7892 191.466 18.4958C192.499 18.2025 193.652 18.0558 194.923 18.0558C195.698 18.0558 196.397 18.0942 197.018 18.1711C197.647 18.2479 198.209 18.3457 198.705 18.4644C199.208 18.5831 199.648 18.7158 200.025 18.8625C200.409 19.0022 200.748 19.1384 201.041 19.2711V23.8285H198.077C197.741 23.3675 197.371 23.0288 196.966 22.8123C196.561 22.5888 196.138 22.477 195.698 22.477C195.335 22.477 194.979 22.5469 194.63 22.6866C194.287 22.8262 193.98 23.0323 193.708 23.3047C193.442 23.5701 193.226 23.8984 193.058 24.2895C192.897 24.6806 192.817 25.1277 192.817 25.6305ZM220.413 33.2053H213.341L210.554 27.024V33.2053H202.99V29.025L204.247 28.7841V22.8228L202.99 22.5818V18.4539H210.554V24.3419L213.341 18.4539H220.13V21.115C219.718 21.4643 219.334 21.831 218.978 22.2151C218.629 22.5992 218.3 22.9869 217.993 23.378C217.686 23.7692 217.403 24.1533 217.144 24.5305C216.886 24.9076 216.652 25.2673 216.442 25.6096C216.715 26.0426 217.005 26.4966 217.312 26.9716C217.619 27.4395 217.937 27.911 218.265 28.3859C218.601 28.8609 218.946 29.3289 219.303 29.7898C219.666 30.2438 220.036 30.6699 220.413 31.068V33.2053Z" fill="#0267FF"/>
</svg>
