<svg width="40" height="40" viewBox="0 0 40 40" fill="none" xmlns="http://www.w3.org/2000/svg">
<g clip-path="url(#clip0_1331_88428)">
<path d="M38.2672 2.5H11.8131C11.3747 2.5 10.9543 2.67555 10.6443 2.98803C10.3343 3.30052 10.1602 3.72433 10.1602 4.16625V11.25L25.0402 15.625L39.9202 11.25V4.16625C39.9202 3.72433 39.746 3.30052 39.436 2.98803C39.126 2.67555 38.7056 2.5 38.2672 2.5Z" fill="#41A5EE"/>
<path d="M39.9202 11.25H10.1602V20L25.0402 24.375L39.9202 20V11.25Z" fill="#2B7CD3"/>
<path d="M39.9202 20H10.1602V28.75L25.0402 33.125L39.9202 28.75V20Z" fill="#185ABD"/>
<path d="M39.9202 28.75H10.1602V35.8337C10.1602 36.2757 10.3343 36.6995 10.6443 37.012C10.9543 37.3244 11.3747 37.5 11.8131 37.5H38.2672C38.7056 37.5 39.126 37.3244 39.436 37.012C39.746 36.6995 39.9202 36.2757 39.9202 35.8337V28.75Z" fill="#103F91"/>
<path opacity="0.1" d="M20.9072 8.75H10.1602V32.5H20.9072C21.3452 32.4987 21.7649 32.3227 22.0746 32.0105C22.3843 31.6983 22.5588 31.2753 22.5602 30.8337V10.4163C22.5588 9.97474 22.3843 9.55169 22.0746 9.23949C21.7649 8.92729 21.3452 8.75132 20.9072 8.75Z" fill="black"/>
<path opacity="0.2" d="M19.6672 10H10.1602V33.75H19.6672C20.1052 33.7487 20.5249 33.5727 20.8346 33.2605C21.1443 32.9483 21.3188 32.5253 21.3202 32.0837V11.6663C21.3188 11.2247 21.1443 10.8017 20.8346 10.4895C20.5249 10.1773 20.1052 10.0013 19.6672 10Z" fill="black"/>
<path opacity="0.2" d="M19.6672 10H10.1602V31.25H19.6672C20.1052 31.2487 20.5249 31.0727 20.8346 30.7605C21.1443 30.4483 21.3188 30.0253 21.3202 29.5837V11.6663C21.3188 11.2247 21.1443 10.8017 20.8346 10.4895C20.5249 10.1773 20.1052 10.0013 19.6672 10Z" fill="black"/>
<path opacity="0.2" d="M18.4272 10H10.1602V31.25H18.4272C18.8652 31.2487 19.2849 31.0727 19.5946 30.7605C19.9043 30.4483 20.0788 30.0253 20.0802 29.5837V11.6663C20.0788 11.2247 19.9043 10.8017 19.5946 10.4895C19.2849 10.1773 18.8652 10.0013 18.4272 10Z" fill="black"/>
<path d="M1.89511 10H18.4293C18.8676 10 19.2881 10.1756 19.5981 10.488C19.908 10.8005 20.0822 11.2243 20.0822 11.6663V28.3337C20.0822 28.7757 19.908 29.1995 19.5981 29.512C19.2881 29.8244 18.8676 30 18.4293 30H1.89511C1.45673 30 1.0363 29.8244 0.726317 29.512C0.416334 29.1995 0.242188 28.7757 0.242188 28.3337L0.242188 11.6663C0.242188 11.2243 0.416334 10.8005 0.726317 10.488C1.0363 10.1756 1.45673 10 1.89511 10Z" fill="#185ABD"/>
<path d="M15.0572 26.25H12.8252L10.2212 17.625L7.49325 26.25H5.26125L2.78125 13.75H5.01325L6.74925 22.5L9.35325 14H11.2132L13.6932 22.5L15.4292 13.75H17.5372L15.0572 26.25Z" fill="white"/>
</g>
<defs>
<clipPath id="clip0_1331_88428">
<rect width="40" height="40" fill="white"/>
</clipPath>
</defs>
</svg>
