<svg width="24" height="24" viewBox="0 0 24 24" fill="none" xmlns="http://www.w3.org/2000/svg">
<path d="M12 22.25C6.34614 22.25 1.75 17.6539 1.75 12C1.75 6.34614 6.34614 1.75 12 1.75C17.6539 1.75 22.25 6.34614 22.25 12C22.25 17.6539 17.6539 22.25 12 22.25ZM12 2.25C6.62386 2.25 2.25 6.62386 2.25 12C2.25 17.3761 6.62386 21.75 12 21.75C17.3761 21.75 21.75 17.3761 21.75 12C21.75 6.62386 17.3761 2.25 12 2.25Z" fill="#1A1A2A" stroke="#1A1A2A"/>
<path d="M15.608 15.404L15.5976 15.3971L15.5869 15.3907L12.4871 13.5408C12.487 13.5407 12.4869 13.5407 12.4869 13.5407C11.8684 13.171 11.3906 12.3244 11.3906 11.61V7.51001C11.3906 7.37615 11.5068 7.26001 11.6406 7.26001C11.7745 7.26001 11.8906 7.37615 11.8906 7.51001V11.61C11.8906 11.9084 12.0072 12.2178 12.1448 12.4597C12.2815 12.7001 12.4875 12.9592 12.7466 13.1107L15.8444 14.9594L15.8444 14.9594L15.8487 14.9619C15.9571 15.0251 16.0047 15.1703 15.9324 15.3015C15.8734 15.3913 15.7857 15.43 15.7106 15.43C15.6841 15.43 15.6642 15.427 15.6492 15.4228C15.6349 15.4189 15.6217 15.4131 15.608 15.404Z" fill="#1A1A2A" stroke="#1A1A2A"/>
</svg>
