<svg width="20" height="20" viewBox="0 0 20 20" fill="none" xmlns="http://www.w3.org/2000/svg">
<g id="vuesax/outline/search-normal">
<g id="search-normal">
<path id="Vector" d="M9.58342 18.1253C4.87508 18.1253 1.04175 14.292 1.04175 9.58366C1.04175 4.87533 4.87508 1.04199 9.58342 1.04199C14.2917 1.04199 18.1251 4.87533 18.1251 9.58366C18.1251 14.292 14.2917 18.1253 9.58342 18.1253ZM9.58342 2.29199C5.55841 2.29199 2.29175 5.56699 2.29175 9.58366C2.29175 13.6003 5.55841 16.8753 9.58342 16.8753C13.6084 16.8753 16.8751 13.6003 16.8751 9.58366C16.8751 5.56699 13.6084 2.29199 9.58342 2.29199Z" fill="#1A1A2A"/>
<path id="Vector_2" d="M18.3333 18.4585C18.3156 18.4585 18.3001 18.4553 18.2868 18.4499C18.2739 18.4448 18.2599 18.4363 18.2452 18.4216L16.5785 16.755C16.557 16.7334 16.5437 16.7027 16.5437 16.6669C16.5437 16.631 16.557 16.6003 16.5785 16.5787C16.6 16.5572 16.6308 16.5439 16.6666 16.5439C16.7025 16.5439 16.7332 16.5572 16.7547 16.5787L18.4214 18.2454C18.4429 18.2669 18.4562 18.2977 18.4562 18.3335C18.4562 18.3694 18.4429 18.4001 18.4214 18.4216C18.4067 18.4363 18.3927 18.4448 18.3798 18.4499C18.3665 18.4553 18.351 18.4585 18.3333 18.4585Z" fill="#1A1A2A" stroke="#1A1A2A"/>
</g>
</g>
</svg>
