<svg width="24" height="24" viewBox="0 0 24 24" fill="none" xmlns="http://www.w3.org/2000/svg">
<path d="M16.96 6.16992C18.96 7.55992 20.34 9.76992 20.62 12.3199" stroke="#333441" stroke-width="1.5" stroke-linecap="round" stroke-linejoin="round"/>
<path d="M3.49023 12.37C3.75023 9.82997 5.11023 7.61997 7.09023 6.21997" stroke="#333441" stroke-width="1.5" stroke-linecap="round" stroke-linejoin="round"/>
<path d="M8.19043 20.9399C9.35043 21.5299 10.6704 21.8599 12.0604 21.8599C13.4004 21.8599 14.6604 21.5599 15.7904 21.0099" stroke="#333441" stroke-width="1.5" stroke-linecap="round" stroke-linejoin="round"/>
<path d="M12.0603 7.69989C13.5956 7.69989 14.8403 6.45524 14.8403 4.91989C14.8403 3.38454 13.5956 2.13989 12.0603 2.13989C10.5249 2.13989 9.28027 3.38454 9.28027 4.91989C9.28027 6.45524 10.5249 7.69989 12.0603 7.69989Z" stroke="#333441" stroke-width="1.5" stroke-linecap="round" stroke-linejoin="round"/>
<path d="M4.8298 19.9201C6.36516 19.9201 7.60981 18.6755 7.60981 17.1401C7.60981 15.6048 6.36516 14.3601 4.8298 14.3601C3.29445 14.3601 2.0498 15.6048 2.0498 17.1401C2.0498 18.6755 3.29445 19.9201 4.8298 19.9201Z" stroke="#333441" stroke-width="1.5" stroke-linecap="round" stroke-linejoin="round"/>
<path d="M19.1696 19.9201C20.705 19.9201 21.9496 18.6755 21.9496 17.1401C21.9496 15.6048 20.705 14.3601 19.1696 14.3601C17.6343 14.3601 16.3896 15.6048 16.3896 17.1401C16.3896 18.6755 17.6343 19.9201 19.1696 19.9201Z" stroke="#333441" stroke-width="1.5" stroke-linecap="round" stroke-linejoin="round"/>
</svg>
