<svg width="24" height="24" viewBox="0 0 24 24" fill="none" xmlns="http://www.w3.org/2000/svg">
<path d="M15 22.25H9C6.3424 22.25 4.56492 21.6803 3.4423 20.5577C2.31968 19.4351 1.75 17.6576 1.75 15V9C1.75 6.3424 2.31968 4.56492 3.4423 3.4423C4.56492 2.31968 6.3424 1.75 9 1.75H15C17.6576 1.75 19.4351 2.31968 20.5577 3.4423C21.6803 4.56492 22.25 6.3424 22.25 9V15C22.25 17.6576 21.6803 19.4351 20.5577 20.5577C19.4351 21.6803 17.6576 22.25 15 22.25ZM9 2.25C6.65972 2.25 4.92432 2.66107 3.7927 3.7927C2.66107 4.92432 2.25 6.65972 2.25 9V15C2.25 17.3403 2.66107 19.0757 3.7927 20.2073C4.92432 21.3389 6.65972 21.75 9 21.75H15C17.3403 21.75 19.0757 21.3389 20.2073 20.2073C21.3389 19.0757 21.75 17.3403 21.75 15V9C21.75 6.65972 21.3389 4.92432 20.2073 3.7927C19.0757 2.66107 17.3403 2.25 15 2.25H9Z" fill="#1A1A2A" stroke="#1A1A2A"/>
<path d="M16.4 18.75H12.6C11.7131 18.75 11.1522 18.5351 10.8086 18.1914C10.4649 17.8478 10.25 17.2869 10.25 16.4V14.6C10.25 13.7131 10.4649 13.1522 10.8086 12.8086C11.1522 12.4649 11.7131 12.25 12.6 12.25H16.4C17.2869 12.25 17.8478 12.4649 18.1914 12.8086C18.5351 13.1522 18.75 13.7131 18.75 14.6V16.4C18.75 17.2869 18.5351 17.8478 18.1914 18.1914C17.8478 18.5351 17.2869 18.75 16.4 18.75ZM12.6 12.75C12.0636 12.75 11.528 12.8049 11.1664 13.1664C10.8049 13.528 10.75 14.0636 10.75 14.6V16.4C10.75 16.9364 10.8049 17.472 11.1664 17.8336C11.528 18.1951 12.0636 18.25 12.6 18.25H16.4C16.9364 18.25 17.472 18.1951 17.8336 17.8336C18.1951 17.472 18.25 16.9364 18.25 16.4V14.6C18.25 14.0636 18.1951 13.528 17.8336 13.1664C17.472 12.8049 16.9364 12.75 16.4 12.75H12.6Z" fill="#1A1A2A" stroke="#1A1A2A"/>
</svg>
