<svg width="24" height="24" viewBox="0 0 24 24" fill="none" xmlns="http://www.w3.org/2000/svg">
<g id="vuesax/bold/screenmirroring">
<g id="screenmirroring">
<path id="Vector" d="M21.49 7.80863V7.81V16.19C21.49 17.9106 20.9791 19.2238 20.0964 20.1064C19.2138 20.9891 17.9006 21.5 16.18 21.5H7.81C6.08945 21.5 4.77634 20.9891 3.89377 20.1054C3.01114 19.2217 2.5 17.9059 2.5 16.18V7.81C2.5 6.08944 3.01093 4.77618 3.89355 3.89355C4.77618 3.01093 6.08944 2.5 7.81 2.5H16.19C17.9107 2.5 19.2237 3.01097 20.105 3.89333C20.9861 4.77559 21.4947 6.08838 21.49 7.80863ZM16.4 19C17.1993 19 17.8889 18.8432 18.3661 18.3661C18.8432 17.8889 19 17.1993 19 16.4V14.6C19 13.8007 18.8432 13.1111 18.3661 12.6339C17.8889 12.1568 17.1993 12 16.4 12H12.6C11.8007 12 11.1111 12.1568 10.6339 12.6339C10.1568 13.1111 10 13.8007 10 14.6V16.4C10 17.1993 10.1568 17.8889 10.6339 18.3661C11.1111 18.8432 11.8007 19 12.6 19H16.4Z" fill="white" stroke="white"/>
</g>
</g>
</svg>
