<svg width="24" height="24" viewBox="0 0 24 24" fill="none" xmlns="http://www.w3.org/2000/svg">
<g id="vuesax/bold/book">
<path id="Vector" d="M20.1786 18.224L20.1786 18.224L20.176 18.2243L19.866 18.2643L19.8635 18.2646C18.1692 18.4919 15.8162 19.1868 13.9274 19.9788C13.616 20.1075 13.25 19.8732 13.25 19.5102V5.60018C13.25 5.42245 13.3517 5.24638 13.5288 5.14948C15.3004 4.19125 17.9898 3.3383 19.7916 3.18018H19.83C20.7539 3.18018 21.5 3.92632 21.5 4.85018V16.7402C21.5 17.4555 20.9004 18.1347 20.1786 18.224Z" fill="white" stroke="white"/>
<path id="Vector_2" d="M3.80967 18.224L3.81227 18.2243L4.12227 18.2643L4.12476 18.2646C5.8191 18.4919 8.172 19.1867 10.0608 19.9787M3.80967 18.224L4.22828 3.18018H4.20672M3.80967 18.224C3.08789 18.1347 2.48828 17.4555 2.48828 16.7402V4.85018C2.48828 3.92632 3.23442 3.18018 4.15828 3.18018H4.20672M3.80967 18.224L4.20672 3.18018M10.0608 19.9787C10.0611 19.9788 10.0614 19.979 10.0616 19.9791L9.86833 20.4401L10.0601 19.9784C10.0603 19.9785 10.0606 19.9786 10.0608 19.9787ZM10.0608 19.9787C10.3723 20.1075 10.7383 19.8733 10.7383 19.5102V5.60018C10.7383 5.40607 10.6408 5.24319 10.4695 5.14946M10.4695 5.14946C10.4698 5.14962 10.4701 5.14978 10.4704 5.14995L10.7083 4.71018L10.4689 5.14912C10.4691 5.14923 10.4693 5.14935 10.4695 5.14946ZM10.4695 5.14946C8.69784 4.19124 6.00844 3.3383 4.20672 3.18018M7.24828 7.24018H4.99828C4.31214 7.24018 3.74828 7.80403 3.74828 8.49018C3.74828 9.19065 4.31649 9.74018 4.99828 9.74018H7.24828C7.93007 9.74018 8.49828 9.19065 8.49828 8.49018C8.49828 7.80403 7.93442 7.24018 7.24828 7.24018ZM4.99828 12.7402H7.99828C8.68007 12.7402 9.24828 12.1907 9.24828 11.4902C9.24828 10.804 8.68442 10.2402 7.99828 10.2402H4.99828C4.31214 10.2402 3.74828 10.804 3.74828 11.4902C3.74828 12.1907 4.31649 12.7402 4.99828 12.7402Z" fill="white" stroke="white"/>
</g>
</svg>
