<svg width="20" height="20" viewBox="0 0 20 20" fill="none" xmlns="http://www.w3.org/2000/svg">
<g id="vuesax/outline/link">
<g id="link">
<path id="Vector" d="M13.75 15.2087H12.4917C12.15 15.2087 11.8667 14.9253 11.8667 14.5837C11.8667 14.242 12.15 13.9587 12.4917 13.9587H13.75C15.9334 13.9587 17.7084 12.1837 17.7084 10.0003C17.7084 7.81699 15.9334 6.04199 13.75 6.04199H12.5C12.1584 6.04199 11.875 5.75866 11.875 5.41699C11.875 5.07533 12.15 4.79199 12.5 4.79199H13.75C16.625 4.79199 18.9584 7.12533 18.9584 10.0003C18.9584 12.8753 16.625 15.2087 13.75 15.2087Z" fill="#292D32"/>
<path id="Vector_2" d="M7.50008 14.7087H6.25008C3.65122 14.7087 1.54175 12.5992 1.54175 10.0003C1.54175 7.40147 3.65122 5.29199 6.25008 5.29199H7.50008C7.53023 5.29199 7.56151 5.30428 7.58715 5.32992C7.6128 5.35556 7.62508 5.38684 7.62508 5.41699C7.62508 5.44714 7.6128 5.47842 7.58715 5.50406C7.56151 5.52971 7.53023 5.54199 7.50008 5.54199H6.25008C3.79061 5.54199 1.79175 7.54085 1.79175 10.0003C1.79175 12.4598 3.79061 14.4587 6.25008 14.4587H7.50008C7.53023 14.4587 7.56151 14.4709 7.58715 14.4966C7.6128 14.5222 7.62508 14.5535 7.62508 14.5837C7.62508 14.6138 7.6128 14.6451 7.58715 14.6707C7.56151 14.6964 7.53023 14.7087 7.50008 14.7087Z" fill="#292D32" stroke="#292D32"/>
<path id="Vector_3" d="M13.3334 10.625H6.66675C6.32508 10.625 6.04175 10.3417 6.04175 10C6.04175 9.65833 6.32508 9.375 6.66675 9.375H13.3334C13.6751 9.375 13.9584 9.65833 13.9584 10C13.9584 10.3417 13.6751 10.625 13.3334 10.625Z" fill="#292D32"/>
</g>
</g>
</svg>
