<svg width="24" height="24" viewBox="0 0 24 24" fill="none" xmlns="http://www.w3.org/2000/svg">
<g id="vuesax/bold/people">
<g id="people">
<path id="Vector" d="M17.549 7.26883C17.4658 7.26039 17.3823 7.26039 17.2991 7.26883C16.0368 7.20924 15.0391 6.16893 15.0391 4.89C15.0391 3.57502 16.1063 2.5 17.4291 2.5C18.7435 2.5 19.8182 3.56642 19.8191 4.88843C19.81 6.16964 18.8103 7.20927 17.549 7.26883Z" fill="white" stroke="white"/>
<path id="Vector_2" d="M20.5136 14.2843L20.5134 14.2845C19.6733 14.847 18.5199 15.1264 17.3674 15.0953C17.6078 14.3887 17.7334 13.6353 17.7415 12.8551L17.7416 12.8551V12.8499C17.7416 12.0323 17.6045 11.2409 17.3368 10.5103C18.5051 10.4745 19.6577 10.7541 20.5051 11.3165L20.5051 11.3165L20.5067 11.3176C21.1922 11.7688 21.4669 12.315 21.4678 12.7971C21.4687 13.2797 21.1954 13.8283 20.5136 14.2843Z" fill="white" stroke="white"/>
<path id="Vector_3" d="M6.6701 7.26883C6.58689 7.26039 6.50342 7.26039 6.42021 7.26883C5.1579 7.20924 4.16016 6.16893 4.16016 4.89C4.16016 3.56501 5.22743 2.5 6.54016 2.5C7.86401 2.5 8.93016 3.56614 8.93016 4.89C8.93016 6.16893 7.93241 7.20924 6.6701 7.26883Z" fill="white" stroke="white"/>
<path id="Vector_4" d="M6.55109 12.8501C6.55109 13.8201 6.76109 14.7401 7.14109 15.5701C5.73109 15.7201 4.26109 15.4201 3.18109 14.7101C1.60109 13.6601 1.60109 11.9501 3.18109 10.9001C4.25109 10.1801 5.76109 9.8901 7.18109 10.0501C6.77109 10.8901 6.55109 11.8401 6.55109 12.8501Z" fill="white"/>
<path id="Vector_5" d="M12.1208 15.87C12.0408 15.86 11.9508 15.86 11.8608 15.87C10.0208 15.81 8.55078 14.3 8.55078 12.44C8.56078 10.54 10.0908 9 12.0008 9C13.9008 9 15.4408 10.54 15.4408 12.44C15.4308 14.3 13.9708 15.81 12.1208 15.87Z" fill="white"/>
<path id="Vector_6" d="M8.87078 17.9401C7.36078 18.9501 7.36078 20.6101 8.87078 21.6101C10.5908 22.7601 13.4108 22.7601 15.1308 21.6101C16.6408 20.6001 16.6408 18.9401 15.1308 17.9401C13.4208 16.7901 10.6008 16.7901 8.87078 17.9401Z" fill="white"/>
</g>
</g>
</svg>
