<svg width="40" height="40" viewBox="0 0 40 40" fill="none" xmlns="http://www.w3.org/2000/svg">
<rect width="40" height="40" rx="20" fill="#CCE1FF"/>
<path d="M19.02 27.5H15.5C14.88 27.5 14.33 27.48 13.84 27.41C11.21 27.12 10.5 25.88 10.5 22.5V17.5C10.5 14.12 11.21 12.88 13.84 12.59C14.33 12.52 14.88 12.5 15.5 12.5H18.96" stroke="#0267FF" stroke-width="1.5" stroke-linecap="round" stroke-linejoin="round"/>
<path d="M23.0195 12.5H24.4995C25.1195 12.5 25.6695 12.52 26.1595 12.59C28.7895 12.88 29.4995 14.12 29.4995 17.5V22.5C29.4995 25.88 28.7895 27.12 26.1595 27.41C25.6695 27.48 25.1195 27.5 24.4995 27.5H23.0195" stroke="#0267FF" stroke-width="1.5" stroke-linecap="round" stroke-linejoin="round"/>
<path d="M23 10V30" stroke="#0267FF" stroke-width="1.5" stroke-linecap="round" stroke-linejoin="round"/>
<path d="M16 16.5V23.5" stroke="#0267FF" stroke-width="1.5" stroke-linecap="round" stroke-linejoin="round"/>
</svg>
