<svg width="40" height="40" viewBox="0 0 40 40" fill="none" xmlns="http://www.w3.org/2000/svg">
<path d="M30.1239 2.58984L37.0789 9.83984V37.4098H11.0977V37.4998H37.1677V9.93109L30.1239 2.58984Z" fill="#909090"/>
<path d="M30.0366 2.5H11.0078V37.41H37.0778V9.84125L30.0366 2.5Z" fill="#F4F4F4"/>
<path d="M10.8195 4.375H2.83203V12.9087H27.957V4.375H10.8195Z" fill="#7A7B7C"/>
<path d="M28.0884 12.7636H2.99219V4.22363H28.0884V12.7636Z" fill="#DD2025"/>
<path d="M11.3134 5.66797H11.2759H11.0172H9.67969V11.668H10.9647V9.64422L11.2484 9.66047C11.5242 9.65573 11.7973 9.60634 12.0572 9.51422C12.2851 9.43584 12.4947 9.3121 12.6734 9.15047C12.8553 8.99649 12.9987 8.80217 13.0922 8.58297C13.2176 8.21859 13.2623 7.83134 13.2234 7.44797C13.2156 7.1741 13.1676 6.90287 13.0809 6.64297C13.002 6.45535 12.8849 6.28622 12.7371 6.14633C12.5892 6.00645 12.4139 5.89888 12.2222 5.83047C12.0564 5.77047 11.8852 5.72692 11.7109 5.70047C11.579 5.68011 11.4457 5.66925 11.3122 5.66797M11.0759 8.53547H10.9647V6.68547H11.2059C11.3124 6.67779 11.4193 6.69414 11.5186 6.7333C11.6179 6.77246 11.7071 6.83343 11.7797 6.91172C11.9301 7.11299 12.0104 7.35797 12.0084 7.60922C12.0084 7.91672 12.0084 8.19547 11.7309 8.39172C11.531 8.50167 11.3035 8.55243 11.0759 8.53547Z" fill="#464648"/>
<path d="M15.6647 5.6516C15.5259 5.6516 15.3909 5.6616 15.2959 5.66535L14.9984 5.67285H14.0234V11.6729H15.1709C15.6095 11.6849 16.0461 11.6105 16.4559 11.4541C16.7858 11.3233 17.0779 11.1123 17.3059 10.8404C17.5276 10.5659 17.6868 10.2464 17.7722 9.9041C17.8704 9.51644 17.9183 9.11775 17.9147 8.71785C17.9389 8.24555 17.9024 7.77209 17.8059 7.3091C17.7144 6.96831 17.543 6.65422 17.3059 6.39285C17.1199 6.18181 16.8922 6.01157 16.6372 5.89285C16.4182 5.7915 16.1878 5.7168 15.9509 5.67035C15.8568 5.6548 15.7614 5.64768 15.6659 5.6491M15.4384 10.5704H15.3134V6.74035H15.3297C15.5874 6.7107 15.8481 6.7572 16.0797 6.8741C16.2493 7.00951 16.3874 7.1801 16.4847 7.3741C16.5896 7.57827 16.6501 7.80236 16.6622 8.0316C16.6734 8.3066 16.6622 8.5316 16.6622 8.71785C16.6673 8.9324 16.6535 9.14698 16.6209 9.3591C16.5824 9.57689 16.5112 9.7876 16.4097 9.9841C16.2948 10.1668 16.1396 10.3207 15.9559 10.4341C15.8017 10.5339 15.6191 10.5804 15.4359 10.5666" fill="#464648"/>
<path d="M21.7875 5.67285H18.75V11.6729H20.035V9.29285H21.66V8.17785H20.035V6.78785H21.785V5.67285" fill="#464648"/>
<path d="M27.2249 25.3189C27.2249 25.3189 31.2099 24.5964 31.2099 25.9576C31.2099 27.3189 28.7411 26.7651 27.2249 25.3189ZM24.2786 25.4226C23.6455 25.5625 23.0285 25.7674 22.4374 26.0339L22.9374 24.9089C23.4374 23.7839 23.9561 22.2501 23.9561 22.2501C24.5528 23.2543 25.247 24.1972 26.0286 25.0651C25.4392 25.153 24.8549 25.2732 24.2786 25.4251V25.4226ZM22.7011 17.2976C22.7011 16.1114 23.0849 15.7876 23.3836 15.7876C23.6824 15.7876 24.0186 15.9314 24.0299 16.9614C23.9326 17.9971 23.7157 19.018 23.3836 20.0039C22.9288 19.1762 22.6934 18.2458 22.6999 17.3014L22.7011 17.2976ZM16.8899 30.4426C15.6674 29.7114 19.4536 27.4601 20.1399 27.3876C20.1361 27.3889 18.1699 31.2076 16.8899 30.4426ZM32.3736 26.1189C32.3611 25.9939 32.2486 24.6101 29.7861 24.6689C28.7597 24.6523 27.7338 24.7247 26.7199 24.8851C25.7377 23.8956 24.8919 22.7795 24.2049 21.5664C24.6377 20.3157 24.8997 19.0122 24.9836 17.6914C24.9474 16.1914 24.5886 15.3314 23.4386 15.3439C22.2886 15.3564 22.1211 16.3626 22.2724 17.8601C22.4205 18.8664 22.7 19.849 23.1036 20.7826C23.1036 20.7826 22.5724 22.4364 21.8699 24.0814C21.1674 25.7264 20.6874 26.5889 20.6874 26.5889C19.4658 26.9866 18.3158 27.5774 17.2811 28.3389C16.2511 29.2976 15.8324 30.0339 16.3749 30.7701C16.8424 31.4051 18.4786 31.5489 19.9411 29.6326C20.7182 28.6429 21.4281 27.6022 22.0661 26.5176C22.0661 26.5176 24.2961 25.9064 24.9899 25.7389C25.6836 25.5714 26.5224 25.4389 26.5224 25.4389C26.5224 25.4389 28.5586 27.4876 30.5224 27.4151C32.4861 27.3426 32.3911 26.2414 32.3786 26.1214" fill="#DD2025"/>
<path d="M29.9414 2.59619V9.93744H36.9827L29.9414 2.59619Z" fill="#909090"/>
<path d="M30 3V10.3413H37.0412L30 3Z" fill="#F4F4F4"/>
<path d="M11.2197 5.57129H11.1822H10.9234H9.58594V11.5713H10.8759V9.54879L11.1609 9.56504C11.4367 9.5603 11.7098 9.51091 11.9697 9.41879C12.1976 9.34038 12.4072 9.21664 12.5859 9.05504C12.7664 8.90065 12.9085 8.70636 13.0009 8.48754C13.1263 8.12316 13.1711 7.73591 13.1322 7.35254C13.1244 7.07867 13.0764 6.80744 12.9897 6.54754C12.9108 6.35992 12.7937 6.19079 12.6458 6.05091C12.498 5.91102 12.3226 5.80345 12.1309 5.73504C11.9644 5.67445 11.7923 5.63049 11.6172 5.60379C11.4852 5.58343 11.352 5.57257 11.2184 5.57129M10.9822 8.43879H10.8709V6.58879H11.1134C11.2199 6.58111 11.3268 6.59746 11.4261 6.63662C11.5254 6.67578 11.6146 6.73675 11.6872 6.81504C11.8376 7.01631 11.9179 7.26129 11.9159 7.51254C11.9159 7.82004 11.9159 8.09879 11.6384 8.29504C11.4385 8.40499 11.211 8.4545 10.9834 8.43754" fill="white"/>
<path d="M15.5711 5.55541C15.4323 5.55541 15.2973 5.56541 15.2023 5.56916L14.9086 5.57666H13.9336V11.5767H15.0811C15.5196 11.5887 15.9562 11.5144 16.3661 11.3579C16.696 11.2271 16.9881 11.0161 17.2161 10.7442C17.4378 10.4697 17.5969 10.1502 17.6823 9.80791C17.7805 9.42025 17.8284 9.02155 17.8248 8.62166C17.8491 8.14936 17.8125 7.6759 17.7161 7.21291C17.6246 6.87212 17.4532 6.55803 17.2161 6.29666C17.0301 6.08561 16.8024 5.91537 16.5473 5.79666C16.3283 5.69531 16.0979 5.62061 15.8611 5.57416C15.7669 5.5586 15.6715 5.55149 15.5761 5.55291M15.3486 10.4742H15.2236V6.64416H15.2398C15.4975 6.61451 15.7583 6.66101 15.9898 6.77791C16.1594 6.91332 16.2976 7.08391 16.3948 7.27791C16.4998 7.48208 16.5603 7.70617 16.5723 7.93541C16.5836 8.21041 16.5723 8.43541 16.5723 8.62166C16.5774 8.83621 16.5636 9.05079 16.5311 9.26291C16.4926 9.4807 16.4213 9.69141 16.3198 9.88791C16.205 10.0706 16.0497 10.2245 15.8661 10.3379C15.7119 10.4377 15.5292 10.4842 15.3461 10.4704" fill="white"/>
<path d="M21.6898 5.57617H18.6523V11.5762H19.9373V9.19617H21.5623V8.08117H19.9373V6.69117H21.6873V5.57617" fill="white"/>
</svg>
