<svg width="40" height="40" viewBox="0 0 40 40" fill="none" xmlns="http://www.w3.org/2000/svg">
<path opacity="0.16" d="M13.3333 2.08301L5 10.4163V37.083C5 38.0063 5.74333 38.7497 6.66667 38.7497H33.3333C34.2567 38.7497 35 38.0063 35 37.083V3.74967C35 2.82634 34.2567 2.08301 33.3333 2.08301H13.3333Z" fill="black"/>
<path opacity="0.04" d="M5 37.5V38.3333C5 39.2567 5.74333 40 6.66667 40H33.3333C34.2567 40 35 39.2567 35 38.3333V37.5C35 38.4233 34.2567 39.1667 33.3333 39.1667H6.66667C5.74333 39.1667 5 38.4233 5 37.5Z" fill="black"/>
<path opacity="0.08" d="M5 37.083V37.4997C5 38.423 5.74333 39.1663 6.66667 39.1663H33.3333C34.2567 39.1663 35 38.423 35 37.4997V37.083C35 38.0063 34.2567 38.7497 33.3333 38.7497H6.66667C5.74333 38.7497 5 38.0063 5 37.083Z" fill="black"/>
<path d="M13.3333 1.6665L5 9.99984V36.6665C5 37.5898 5.74333 38.3332 6.66667 38.3332H33.3333C34.2567 38.3332 35 37.5898 35 36.6665V3.33317C35 2.40984 34.2567 1.6665 33.3333 1.6665H13.3333Z" fill="#CFD8DC"/>
<g opacity="0.05">
<path d="M30.8346 13.333H14.168V14.9997H30.8346V13.333Z" fill="black"/>
<path d="M14.168 28.3332H25.0013V26.6665H14.168" fill="black"/>
<path d="M14.168 24.9997H28.3346V23.333H14.168" fill="black"/>
<path d="M14.168 21.6662H23.3346V19.9995H14.168" fill="black"/>
<path d="M14.168 18.3332H26.668V16.6665H14.168" fill="black"/>
<path d="M14.168 31.6662H29.168V29.9995H14.168" fill="black"/>
<path d="M14.168 34.9997H26.668V33.333H14.168" fill="black"/>
</g>
<path d="M29.9987 12.5H13.332V14.1667H29.9987V12.5Z" fill="#78909C"/>
<path d="M13.332 27.5002H24.1654V25.8335H13.332" fill="#78909C"/>
<path d="M13.332 24.1667H27.4987V22.5H13.332" fill="#78909C"/>
<path d="M13.332 20.8332H22.4987V19.1665H13.332" fill="#78909C"/>
<path d="M13.332 17.5002H25.832V15.8335H13.332" fill="#78909C"/>
<path d="M13.332 30.8332H28.332V29.1665H13.332" fill="#78909C"/>
<path d="M13.332 34.1667H25.832V32.5H13.332" fill="#78909C"/>
<path opacity="0.07" fill-rule="evenodd" clip-rule="evenodd" d="M5 9.99984L13.3333 16.6665L20.8333 9.1665L13.3333 1.6665L5 9.99984Z" fill="url(#paint0_linear_1331_88486)"/>
<path d="M13.3333 8.33317C13.3333 9.2565 12.59 9.99984 11.6667 9.99984H5L13.3333 1.6665V8.33317Z" fill="#ECEFF1"/>
<defs>
<linearGradient id="paint0_linear_1331_88486" x1="9.16667" y1="5.83317" x2="16.6667" y2="12.4998" gradientUnits="userSpaceOnUse">
<stop/>
<stop offset="1" stop-opacity="0"/>
</linearGradient>
</defs>
</svg>
